<?xml version="1.0" encoding="UTF-8" standalone="no"?>
<svg
   width="1024"
   height="1024"
   viewBox="0 0 270.93334 270.93335"
   version="1.1"
   id="goto"
   data-name="Layer 1"
   sodipodi:docname="icon.svg"
   inkscape:version="1.3.2 (091e20e, 2023-11-25)"
   xmlns:inkscape="http://www.inkscape.org/namespaces/inkscape"
   xmlns:sodipodi="http://sodipodi.sourceforge.net/DTD/sodipodi-0.dtd"
   xmlns="http://www.w3.org/2000/svg"
   xmlns:svg="http://www.w3.org/2000/svg">
  <defs
     id="defs5" />
  <sodipodi:namedview
     id="namedview5"
     pagecolor="#ffffff"
     bordercolor="#000000"
     borderopacity="0.25"
     inkscape:showpageshadow="2"
     inkscape:pageopacity="0.0"
     inkscape:pagecheckerboard="0"
     inkscape:deskcolor="#d1d1d1"
     inkscape:zoom="0.23046875"
     inkscape:cx="514.16949"
     inkscape:cy="512"
     inkscape:window-width="2560"
     inkscape:window-height="1387"
     inkscape:window-x="0"
     inkscape:window-y="25"
     inkscape:window-maximized="0"
     inkscape:current-layer="g5" />
  <title
     id="title1">goto</title>
  <g
     id="layer1">
    <rect
       style="fill:#323330"
       width="270.93332"
       height="270.93332"
       x="0"
       y="0"
       id="rect1" />
    <g
       transform="matrix(0.26459082,0,0,0.26490621,-13.684176,24.697131)"
       style="fill:#ffffff"
       id="g5">
      <svg
         viewBox="120 20.0 20.00 72.00"
         width="350"
         height="400"
         version="1.1"
         id="svg2">
        <path
           d="M 129.58 23.14 L 157.14 51.68 l 3.28 3.26 a 2.46 2.46 90 0 1 0 3.5 L 157.2 61.76 L 129.36 91.28 a 2.5 2.5 90 0 1 -3.52 0 L 118 83.6 A 2.5 2.5 90 0 1 118 80 L 140.74 56.82 L 118.24 34.46 a 2.52 2.52 90 0 1 0 -3.52 L 126 23.12 a 2.46 2.46 90 0 1 3.5 0 l 0 0 Z"
           fill="#fff"
           id="path2" />
      </svg>
      <path
         style="font-weight:bold;font-size:399.751px;line-height:0px;font-family:'Fira Code';-inkscape-font-specification:'Fira Code Bold';stroke-width:0.999376"
         d="m 212.36022,880.50017 q -59.16315,0 -90.34373,-37.17684 -30.780827,-37.57659 -30.780827,-108.73227 0,-45.97137 16.789537,-78.75095 16.78955,-32.77958 45.97137,-49.56913 29.58158,-16.78954 65.95892,-16.78954 28.38232,0 49.16937,9.19427 21.1868,8.79453 38.77585,25.18432 l -34.37859,35.57784 q -13.19178,-11.59278 -24.78456,-16.78955 -11.19303,-5.19676 -25.58407,-5.19676 -29.98132,0 -47.17061,23.98506 -17.1893,23.58531 -17.1893,73.55419 0,53.56663 12.79204,75.55294 12.79203,21.9863 41.17435,21.9863 18.7883,0 34.37859,-8.39477 V 760.57487 H 212.36022 L 205.9642,715.00326 H 309.09996 V 852.5176 q -45.57161,27.98257 -96.73974,27.98257 z M 552.54847,734.99081 q 0,67.55792 -28.78207,106.73352 -28.38232,38.77584 -81.94895,38.77584 -53.96639,0 -82.34871,-38.37609 -28.38232,-38.77585 -28.38232,-107.13327 0,-67.55792 28.38232,-106.33377 28.78207,-39.1756 82.34871,-39.1756 53.96638,0 82.3487,38.77585 28.38232,38.3761 28.38232,106.73352 z m -67.15816,0 q 0,-51.16813 -10.39353,-74.35369 -9.99378,-23.18556 -33.17933,-23.18556 -23.18556,0 -33.57909,23.18556 -9.99377,23.18556 -9.99377,74.35369 0,51.16813 9.99377,74.35368 10.39353,23.18556 33.57909,23.18556 23.5853,0 33.57908,-23.18556 9.99378,-23.18555 9.99378,-74.35368 z M 714.04803,647.04559 V 873.70441 H 648.48887 V 647.04559 h -77.95145 v -50.36863 h 224.26031 l -6.39601,50.36863 z M 1032.25,734.99081 q 0,67.55792 -28.7821,106.73352 -28.38233,38.77584 -81.94896,38.77584 -53.96639,0 -82.34871,-38.37609 -28.38232,-38.77585 -28.38232,-107.13327 0,-67.55792 28.38232,-106.33377 28.78207,-39.1756 82.34871,-39.1756 53.96638,0 82.34866,38.77585 28.3824,38.3761 28.3824,106.73352 z m -67.1582,0 q 0,-51.16813 -10.39353,-74.35369 -9.99377,-23.18556 -33.17933,-23.18556 -23.18556,0 -33.57909,23.18556 -9.99377,23.18556 -9.99377,74.35369 0,51.16813 9.99377,74.35368 10.39353,23.18556 33.57909,23.18556 23.58531,0 33.57908,-23.18556 9.99378,-23.18555 9.99378,-74.35368 z"
         id="text1"
         transform="scale(1.0005958,0.99940455)"
         aria-label="GOTO" />
    </g>
  </g>
</svg>
